<svg id="Layer_1" data-name="Layer 1" xmlns="http://www.w3.org/2000/svg" viewBox="0 0 1080 311.77"><defs><style>.cls-1{fill:#fff;}.cls-2{fill:#0086ff;}</style></defs><title>Nexa Logo</title><path class="cls-1" d="M358.28,178.44V135.9H528.54l-.14,42.54Z"/><path class="cls-1" d="M358.28,256.55V214H528.54l-.14,42.53Z"/><path class="cls-1" d="M358.28,100.32V57.79H528.54l-.14,42.53Z"/><polygon class="cls-1" points="1008.28 254.8 961.21 256.3 885.14 108.67 828.65 256.3 783.07 256.3 859.35 58.6 859.37 58.54 903.82 57.42 904.77 57.42 906.58 57.41 1008.28 254.8"/><path class="cls-1" d="M630.05,157.06,548.53,57.82h49.62l56.71,69,56.71-69h49.62l-81.52,99.24,81.52,99.24H711.57l-56.71-69-56.71,69H548.53Z"/><path class="cls-2" d="M2.31,157A150.09,150.09,0,0,1,39.67,57.64L12.61,211.82A150.19,150.19,0,0,1,2.31,157Z"/><path class="cls-2" d="M180.19,187,98.72,16.32a151.12,151.12,0,0,1,111.27,1Z"/><path class="cls-2" d="M303.87,157A150.76,150.76,0,0,1,49.26,266.3h4.13L83.75,94.84,166.26,266.3h50.36L255.28,46.14A150.2,150.2,0,0,1,303.87,157Z"/></svg>